<mxfile host="app.diagrams.net" modified="2022-03-30T07:52:49.678Z" agent="5.0 (Windows NT 10.0; Win64; x64) AppleWebKit/537.36 (KHTML, like Gecko) Chrome/99.0.4844.84 Safari/537.36" etag="8nXmOPDF-Ndx3jOX6jPV" version="17.2.5" type="github">
  <diagram id="_8rYh8QpYC1B4U-MqZSV" name="Page-1">
    <mxGraphModel dx="1422" dy="762" grid="1" gridSize="10" guides="1" tooltips="1" connect="1" arrows="1" fold="1" page="1" pageScale="1" pageWidth="827" pageHeight="1169" math="0" shadow="0">
      <root>
        <mxCell id="0" />
        <mxCell id="1" parent="0" />
        <mxCell id="eWHTaQ1aL520iTgxOIKD-3" value="" style="edgeStyle=orthogonalEdgeStyle;rounded=0;orthogonalLoop=1;jettySize=auto;html=1;endArrow=none;endFill=0;" edge="1" parent="1" source="eWHTaQ1aL520iTgxOIKD-1" target="eWHTaQ1aL520iTgxOIKD-2">
          <mxGeometry relative="1" as="geometry" />
        </mxCell>
        <mxCell id="eWHTaQ1aL520iTgxOIKD-1" value="백오피스 로그인 화면" style="rounded=0;whiteSpace=wrap;html=1;fillColor=#1ba1e2;strokeColor=#006EAF;fontColor=#ffffff;" vertex="1" parent="1">
          <mxGeometry x="200" y="120" width="120" height="60" as="geometry" />
        </mxCell>
        <mxCell id="eWHTaQ1aL520iTgxOIKD-9" value="" style="edgeStyle=orthogonalEdgeStyle;rounded=0;orthogonalLoop=1;jettySize=auto;html=1;endArrow=none;endFill=0;" edge="1" parent="1" source="eWHTaQ1aL520iTgxOIKD-2" target="eWHTaQ1aL520iTgxOIKD-8">
          <mxGeometry relative="1" as="geometry" />
        </mxCell>
        <mxCell id="eWHTaQ1aL520iTgxOIKD-2" value="백오피스 메인" style="rounded=0;whiteSpace=wrap;html=1;" vertex="1" parent="1">
          <mxGeometry x="200" y="260" width="120" height="60" as="geometry" />
        </mxCell>
        <mxCell id="eWHTaQ1aL520iTgxOIKD-8" value="피드백 컨텐츠 추가" style="rounded=0;whiteSpace=wrap;html=1;fillColor=#1ba1e2;strokeColor=#006EAF;fontColor=#ffffff;" vertex="1" parent="1">
          <mxGeometry x="200" y="400" width="120" height="60" as="geometry" />
        </mxCell>
        <mxCell id="eWHTaQ1aL520iTgxOIKD-17" value="&lt;b&gt;시나리오 1&lt;br&gt;&lt;/b&gt;&lt;br&gt;마케팅팀 페퍼는 피드백 컨텐츠를 추가하고 싶다." style="text;html=1;strokeColor=none;fillColor=none;align=left;verticalAlign=middle;whiteSpace=wrap;rounded=0;" vertex="1" parent="1">
          <mxGeometry x="10" y="96.88" width="180" height="106.25" as="geometry" />
        </mxCell>
        <mxCell id="eWHTaQ1aL520iTgxOIKD-18" value="&lt;b&gt;시나리오 2&lt;br&gt;&lt;/b&gt;&lt;br&gt;페퍼는 피드백 컨텐츠를 추가한다." style="text;html=1;strokeColor=none;fillColor=none;align=left;verticalAlign=middle;whiteSpace=wrap;rounded=0;" vertex="1" parent="1">
          <mxGeometry x="5" y="380" width="185" height="97.03" as="geometry" />
        </mxCell>
      </root>
    </mxGraphModel>
  </diagram>
</mxfile>
